<svg width="16" height="15" viewBox="0 0 16 15" fill="none" xmlns="http://www.w3.org/2000/svg"><g clip-path="url(#clip0_6907_2044)"><path d="M14.9647 4.09648L14.9826 4.21356C14.8094 3.59888 14.3416 3.12459 13.7473 2.95196L13.7347 2.94897C12.6171 2.64552 8.11964 2.64552 8.11964 2.64552C8.11964 2.64552 3.63356 2.63954 2.50457 2.94897C1.89886 3.12459 1.43054 3.59888 1.26029 4.20101L1.2573 4.21356C0.839758 6.39447 0.836771 9.01504 1.27582 11.3501L1.2573 11.2318C1.43054 11.8465 1.89826 12.3208 2.49262 12.4934L2.50517 12.4964C3.62161 12.8004 8.12024 12.8004 8.12024 12.8004C8.12024 12.8004 12.6057 12.8004 13.7353 12.4964C14.3416 12.3208 14.8099 11.8465 14.9802 11.2443L14.9832 11.2318C15.1731 10.2175 15.2819 9.05029 15.2819 7.85798C15.2819 7.81437 15.2819 7.77017 15.2813 7.72596C15.2819 7.68534 15.2819 7.63696 15.2819 7.58857C15.2819 6.39567 15.1731 5.22845 14.9647 4.09648ZM6.68481 9.9039V5.54743L10.4278 7.72895L6.68481 9.9039Z" fill="#333333"/></g><defs><clipPath id="clip0_6907_2044"><rect width="14.3364" height="14.3364" fill="white" transform="translate(0.945312 0.554688)"/></clipPath></defs></svg>