<svg width="14" height="15" viewBox="0 0 14 15" fill="none" xmlns="http://www.w3.org/2000/svg">
<path d="M12.1678 3.16586C12.0679 3.11422 11.9706 3.05761 11.8764 2.99625C11.6023 2.81506 11.351 2.60157 11.1279 2.36036C10.5698 1.7217 10.3613 1.07379 10.2845 0.620158H10.2876C10.2235 0.243623 10.25 0 10.254 0H7.71168V9.83063C7.71168 9.96262 7.71168 10.0931 7.70613 10.222C7.70613 10.238 7.70459 10.2528 7.70366 10.2701C7.70366 10.2772 7.70366 10.2846 7.70212 10.292C7.70212 10.2938 7.70212 10.2957 7.70212 10.2975C7.67532 10.6502 7.56225 10.991 7.37286 11.2897C7.18347 11.5885 6.92356 11.8362 6.616 12.0109C6.29545 12.1933 5.9329 12.2889 5.5641 12.2884C4.3796 12.2884 3.41961 11.3226 3.41961 10.1298C3.41961 8.93694 4.3796 7.97108 5.5641 7.97108C5.78832 7.97088 6.01116 8.00616 6.22435 8.07563L6.22743 5.48706C5.58025 5.40346 4.92276 5.45489 4.29645 5.63812C3.67014 5.82134 3.0886 6.13237 2.58851 6.5516C2.15032 6.93233 1.78193 7.3866 1.49992 7.89399C1.3926 8.07902 0.987698 8.82253 0.938665 10.0292C0.907827 10.7142 1.11352 11.4237 1.21158 11.717V11.7232C1.27326 11.8959 1.51226 12.4852 1.90175 12.982C2.21581 13.3805 2.58688 13.7306 3.00298 14.0209V14.0148L3.00915 14.0209C4.2399 14.8573 5.6045 14.8024 5.6045 14.8024C5.84072 14.7928 6.63203 14.8024 7.53066 14.3765C8.52735 13.9044 9.09478 13.201 9.09478 13.201C9.45728 12.7806 9.74553 12.3017 9.94715 11.7845C10.1772 11.1798 10.254 10.4545 10.254 10.1646V4.94924C10.2848 4.96774 10.6956 5.23943 10.6956 5.23943C10.6956 5.23943 11.2874 5.61874 12.2107 5.86575C12.8731 6.04153 13.7655 6.07854 13.7655 6.07854V3.55473C13.4528 3.58865 12.8179 3.48997 12.1678 3.16586Z" fill="#333333"/>
</svg>
