<svg width="52" height="52" viewBox="0 0 52 52" fill="none" xmlns="http://www.w3.org/2000/svg"><path d="M16.25 16L25.205 7.045C25.3094 6.94056 25.4333 6.85772 25.5697 6.80119C25.7061 6.74467 25.8523 6.71558 26 6.71558C26.1477 6.71558 26.2939 6.74467 26.4303 6.80119C26.5667 6.85772 26.6906 6.94056 26.795 7.045L35.75 16M18.5 13.75V23.875C18.5 24.496 19.004 25 19.625 25H23.75V20.125C23.75 19.504 24.254 19 24.875 19H27.125C27.746 19 28.25 19.504 28.25 20.125V25H32.375C32.996 25 33.5 24.496 33.5 23.875V13.75M22.25 25H30.5" stroke="#717171" stroke-width="1.5" stroke-linecap="round" stroke-linejoin="round"/><path d="M13.1136 33.2727V42H12.0568V33.2727H13.1136ZM12.125 32.3864L13.1648 30.4091H14.3409L13.0114 32.3864H12.125ZM16.1019 38.0625V42H15.0962V35.4545H16.0678V36.4773H16.1531C16.3065 36.1449 16.5394 35.8778 16.8519 35.6761C17.1644 35.4716 17.5678 35.3693 18.0621 35.3693C18.5053 35.3693 18.8931 35.4602 19.2255 35.642C19.5579 35.821 19.8164 36.0938 20.0011 36.4602C20.1857 36.8239 20.2781 37.2841 20.2781 37.8409V42H19.2724V37.9091C19.2724 37.3949 19.1388 36.9943 18.8718 36.7074C18.6048 36.4176 18.2383 36.2727 17.7724 36.2727C17.4513 36.2727 17.1644 36.3423 16.9116 36.4815C16.6616 36.6207 16.4641 36.8239 16.3192 37.0909C16.1744 37.358 16.1019 37.6818 16.1019 38.0625ZM22.1158 42V35.4545H23.1214V42H22.1158ZM22.6271 34.3636C22.4311 34.3636 22.2621 34.2969 22.12 34.1634C21.9808 34.0298 21.9112 33.8693 21.9112 33.6818C21.9112 33.4943 21.9808 33.3338 22.12 33.2003C22.2621 33.0668 22.4311 33 22.6271 33C22.8232 33 22.9908 33.0668 23.13 33.2003C23.272 33.3338 23.343 33.4943 23.343 33.6818C23.343 33.8693 23.272 34.0298 23.13 34.1634C22.9908 34.2969 22.8232 34.3636 22.6271 34.3636ZM27.6225 42.1364C27.0089 42.1364 26.4805 41.9915 26.0373 41.7017C25.5941 41.4119 25.2532 41.0128 25.0146 40.5043C24.7759 39.9957 24.6566 39.4148 24.6566 38.7614C24.6566 38.0966 24.7788 37.5099 25.0231 37.0014C25.2702 36.4901 25.614 36.0909 26.0543 35.804C26.4975 35.5142 27.0146 35.3693 27.6055 35.3693C28.0657 35.3693 28.4805 35.4545 28.8498 35.625C29.2191 35.7955 29.5217 36.0341 29.7575 36.3409C29.9933 36.6477 30.1396 37.0057 30.1964 37.4148H29.1907C29.114 37.1165 28.9435 36.8523 28.6793 36.6222C28.418 36.3892 28.0657 36.2727 27.6225 36.2727C27.2305 36.2727 26.8867 36.375 26.5913 36.5795C26.2987 36.7812 26.07 37.0668 25.9052 37.4361C25.7433 37.8026 25.6623 38.233 25.6623 38.7273C25.6623 39.233 25.7418 39.6733 25.9009 40.0483C26.0629 40.4233 26.2901 40.7145 26.5827 40.9219C26.8782 41.1293 27.2248 41.233 27.6225 41.233C27.8839 41.233 28.1211 41.1875 28.3342 41.0966C28.5472 41.0057 28.7276 40.875 28.8754 40.7045C29.0231 40.5341 29.1282 40.3295 29.1907 40.0909H30.1964C30.1396 40.4773 29.9989 40.8253 29.7745 41.1349C29.5529 41.4418 29.2589 41.6861 28.8924 41.8679C28.5288 42.0469 28.1055 42.1364 27.6225 42.1364ZM31.6665 42V35.4545H32.6722V42H31.6665ZM32.1779 34.3636C31.9819 34.3636 31.8129 34.2969 31.6708 34.1634C31.5316 34.0298 31.462 33.8693 31.462 33.6818C31.462 33.4943 31.5316 33.3338 31.6708 33.2003C31.8129 33.0668 31.9819 33 32.1779 33C32.3739 33 32.5415 33.0668 32.6808 33.2003C32.8228 33.3338 32.8938 33.4943 32.8938 33.6818C32.8938 33.8693 32.8228 34.0298 32.6808 34.1634C32.5415 34.2969 32.3739 34.3636 32.1779 34.3636ZM37.1733 42.1364C36.5824 42.1364 36.0639 41.9957 35.6179 41.7145C35.1747 41.4332 34.8281 41.0398 34.5781 40.5341C34.331 40.0284 34.2074 39.4375 34.2074 38.7614C34.2074 38.0795 34.331 37.4844 34.5781 36.9759C34.8281 36.4673 35.1747 36.0724 35.6179 35.7912C36.0639 35.5099 36.5824 35.3693 37.1733 35.3693C37.7642 35.3693 38.2813 35.5099 38.7244 35.7912C39.1705 36.0724 39.517 36.4673 39.7642 36.9759C40.0142 37.4844 40.1392 38.0795 40.1392 38.7614C40.1392 39.4375 40.0142 40.0284 39.7642 40.5341C39.517 41.0398 39.1705 41.4332 38.7244 41.7145C38.2813 41.9957 37.7642 42.1364 37.1733 42.1364ZM37.1733 41.233C37.6222 41.233 37.9915 41.1179 38.2812 40.8878C38.571 40.6577 38.7855 40.3551 38.9247 39.9801C39.0639 39.6051 39.1335 39.1989 39.1335 38.7614C39.1335 38.3239 39.0639 37.9162 38.9247 37.5384C38.7855 37.1605 38.571 36.8551 38.2812 36.6222C37.9915 36.3892 37.6222 36.2727 37.1733 36.2727C36.7244 36.2727 36.3551 36.3892 36.0653 36.6222C35.7756 36.8551 35.5611 37.1605 35.4219 37.5384C35.2827 37.9162 35.2131 38.3239 35.2131 38.7614C35.2131 39.1989 35.2827 39.6051 35.4219 39.9801C35.5611 40.3551 35.7756 40.6577 36.0653 40.8878C36.3551 41.1179 36.7244 41.233 37.1733 41.233Z" fill="#717171"/></svg>