<svg width="15" height="14" viewBox="0 0 15 14" fill="none" xmlns="http://www.w3.org/2000/svg">
<path d="M6.66529 0C3.26584 0 0.5 2.76584 0.5 6.16529C0.5 9.56493 3.26584 12.3306 6.66529 12.3306C10.0649 12.3306 12.8306 9.56493 12.8306 6.16529C12.8306 2.76584 10.0649 0 6.66529 0ZM6.66529 11.1924C3.89338 11.1924 1.63821 8.93723 1.63821 6.16532C1.63821 3.39341 3.89338 1.13821 6.66529 1.13821C9.4372 1.13821 11.6924 3.39338 11.6924 6.16529C11.6924 8.9372 9.4372 11.1924 6.66529 11.1924Z" fill="#333333"/>
<path d="M14.333 13.0285L11.0701 9.76563C10.8478 9.54329 10.4877 9.54329 10.2654 9.76563C10.043 9.98777 10.043 10.3482 10.2654 10.5704L13.5283 13.8332C13.6394 13.9444 13.7849 14 13.9306 14C14.0761 14 14.2218 13.9444 14.333 13.8332C14.5553 13.6111 14.5553 13.2506 14.333 13.0285Z" fill="#333333"/>
</svg>
