<svg width="52" height="45" viewBox="0 0 52 45" fill="none" xmlns="http://www.w3.org/2000/svg">
<path d="M39.1539 41.8647C40.2098 40.6297 40.8296 39.1147 40.9398 37.4941C41.0499 35.8689 40.6459 34.2896 39.7691 32.9169L34.0716 24.0287C31.8129 20.5075 27.9702 18.4048 23.7878 18.4048C19.6055 18.4048 15.7582 20.5075 13.504 24.0287L7.80662 32.9169C6.92975 34.285 6.52574 35.8689 6.63592 37.4895C6.74611 39.1147 7.36589 40.6252 8.42182 41.8647C9.47774 43.0997 10.878 43.949 12.4619 44.3071C14.0504 44.6698 15.6756 44.5137 17.1676 43.8618L17.2686 43.8159C19.3438 42.9206 21.5658 42.4753 23.7878 42.4753C26.0466 42.4753 28.3054 42.939 30.408 43.8618C31.8955 44.5137 33.5207 44.6698 35.1092 44.3071C36.6977 43.9444 38.0934 43.0997 39.1539 41.8647ZM31.1839 42.0943C28.8425 41.0659 26.3542 40.5425 23.7833 40.5425C21.2123 40.5425 18.7286 41.0659 16.3872 42.0943L16.3183 42.1218C14.055 43.0767 11.4748 42.4707 9.88175 40.6114C8.27031 38.7245 8.08667 36.0525 9.42724 33.959L15.1247 25.0755C17.0253 22.1097 20.262 20.3422 23.7833 20.3422C27.3045 20.3422 30.5412 22.1143 32.4419 25.0755L38.1393 33.959C39.4798 36.0525 39.2962 38.7245 37.6802 40.6114C36.5875 41.8877 35.0358 42.5763 33.4473 42.5763C32.6898 42.5717 31.9185 42.4156 31.1839 42.0943Z" fill="#98B020"/>
<path d="M11.9384 19.672C12.503 18.0605 12.4571 16.2379 11.8006 14.5347C11.1441 12.836 9.95964 11.4495 8.45839 10.6323C7.54019 10.1319 6.56691 9.87939 5.60739 9.87939C4.95088 9.87939 4.29896 9.99876 3.67458 10.2375C0.566488 11.4311 -0.847536 15.3059 0.520578 18.8731C1.59028 21.6507 4.08777 23.5192 6.73218 23.5192C7.39328 23.5192 8.03602 23.3998 8.64662 23.1657C10.1846 22.5827 11.3553 21.3385 11.9384 19.672ZM10.1157 19.0338C9.72091 20.1586 8.95422 20.9896 7.95797 21.3706C7.55397 21.5267 7.13619 21.6002 6.71841 21.6002C4.93711 21.6002 3.12826 20.2688 2.32943 18.1891C1.34236 15.6181 2.25597 12.8635 4.37241 12.0509C5.35489 11.6699 6.50722 11.7755 7.54019 12.3402C8.63744 12.937 9.51432 13.9654 10.001 15.2371C10.4922 16.5042 10.5335 17.8539 10.1157 19.0338Z" fill="#98B020"/>
<path d="M19.5731 0.5C15.8177 0.5 12.7646 4.01669 12.7646 8.33681C12.7646 12.6569 15.8177 16.1736 19.5731 16.1736C23.3285 16.1736 26.3815 12.6569 26.3815 8.33681C26.3815 4.01669 23.3285 0.5 19.5731 0.5ZM19.5731 14.374C16.8093 14.374 14.5643 11.6653 14.5643 8.33681C14.5643 5.00835 16.8093 2.29508 19.5731 2.29508C22.3369 2.29508 24.5818 5.00376 24.5818 8.33681C24.5818 11.6653 22.3369 14.374 19.5731 14.374Z" fill="#98B020"/>
<path d="M29.5953 9.20915C28.296 13.1253 30.0085 17.2296 33.415 18.3636C33.998 18.5564 34.6086 18.6574 35.2192 18.6574C38.1391 18.6574 40.9121 16.4629 41.9542 13.3227C42.574 11.4541 42.5373 9.48461 41.844 7.77217C41.1278 6.00923 39.8102 4.72835 38.1345 4.16825C36.4542 3.61274 34.6316 3.84688 33.0064 4.83394C31.4271 5.78428 30.2151 7.34062 29.5953 9.20915ZM37.5285 5.99546C38.6625 6.37192 39.5577 7.25798 40.0581 8.48837C40.5769 9.77384 40.6045 11.2705 40.127 12.7075C39.3236 15.1269 37.2852 16.7246 35.2376 16.7246C34.829 16.7246 34.425 16.6603 34.0256 16.5272C31.6291 15.7283 30.463 12.7213 31.4271 9.81516C31.9045 8.38277 32.8181 7.1983 34.0072 6.47751C35.1412 5.79346 36.3945 5.619 37.5285 5.99546Z" fill="#98B020"/>
<path d="M49.139 18.3406L49.0931 18.3085C48.1336 17.6152 47.0088 17.2847 45.8565 17.2847C43.7814 17.2847 41.6098 18.3544 40.1591 20.3147C37.8911 23.3861 38.2171 27.495 40.8936 29.4737C41.8256 30.167 42.9596 30.5297 44.1762 30.5297C46.3385 30.5297 48.4688 29.3957 49.8782 27.4996C52.1461 24.4328 51.8156 20.3239 49.139 18.3406ZM48.3264 26.3519C47.2521 27.8026 45.6683 28.606 44.1945 28.606C43.4187 28.606 42.6749 28.3857 42.0506 27.922C40.2325 26.5722 40.081 23.6753 41.72 21.4625C42.7668 20.0484 44.3093 19.2037 45.8473 19.2037C46.6461 19.2037 47.3899 19.4424 48.0005 19.8923C49.8139 21.2421 49.9608 24.139 48.3264 26.3519Z" fill="#98B020"/>
</svg>
