<svg width="52" height="45" viewBox="0 0 52 45" fill="none" xmlns="http://www.w3.org/2000/svg">
<path d="M39.1519 41.8647C40.2078 40.6297 40.8276 39.1147 40.9378 37.4941C41.048 35.8689 40.644 34.2896 39.7671 32.9169L34.0697 24.0287C31.8109 20.5075 27.9683 18.4048 23.7859 18.4048C19.6035 18.4048 15.7563 20.5075 13.5021 24.0287L7.80467 32.9169C6.92779 34.285 6.52379 35.8689 6.63397 37.4895C6.74415 39.1147 7.36394 40.6252 8.41986 41.8647C9.47579 43.0997 10.876 43.949 12.4599 44.3071C14.0484 44.6698 15.6736 44.5137 17.1657 43.8618L17.2667 43.8159C19.3418 42.9206 21.5639 42.4753 23.7859 42.4753C26.0447 42.4753 28.3034 42.939 30.4061 43.8618C31.8936 44.5137 33.5188 44.6698 35.1073 44.3071C36.6957 43.9444 38.0914 43.0997 39.1519 41.8647ZM31.182 42.0943C28.8406 41.0659 26.3523 40.5425 23.7813 40.5425C21.2103 40.5425 18.7266 41.0659 16.3852 42.0943L16.3164 42.1218C14.053 43.0767 11.4729 42.4707 9.8798 40.6114C8.26836 38.7245 8.08472 36.0525 9.42529 33.959L15.1227 25.0755C17.0234 22.1097 20.26 20.3422 23.7813 20.3422C27.3026 20.3422 30.5392 22.1143 32.4399 25.0755L38.1373 33.959C39.4779 36.0525 39.2942 38.7245 37.6782 40.6114C36.5856 41.8877 35.0338 42.5763 33.4453 42.5763C32.6878 42.5717 31.9165 42.4156 31.182 42.0943Z" fill="white"/>
<path d="M11.9364 19.672C12.5011 18.0605 12.4552 16.2379 11.7987 14.5347C11.1422 12.836 9.95769 11.4495 8.45644 10.6323C7.53824 10.1319 6.56495 9.87939 5.60544 9.87939C4.94893 9.87939 4.29701 9.99876 3.67263 10.2375C0.564535 11.4311 -0.849489 15.3059 0.518625 18.8731C1.58832 21.6507 4.08582 23.5192 6.73023 23.5192C7.39133 23.5192 8.03407 23.3998 8.64467 23.1657C10.1826 22.5827 11.3533 21.3385 11.9364 19.672ZM10.1138 19.0338C9.71896 20.1586 8.95226 20.9896 7.95602 21.3706C7.55201 21.5267 7.13423 21.6002 6.71645 21.6002C4.93515 21.6002 3.1263 20.2688 2.32747 18.1891C1.34041 15.6181 2.25402 12.8635 4.37046 12.0509C5.35293 11.6699 6.50527 11.7755 7.53824 12.3402C8.63549 12.937 9.51236 13.9654 9.99901 15.2371C10.4902 16.5042 10.5316 17.8539 10.1138 19.0338Z" fill="white"/>
<path d="M19.5711 0.5C15.8157 0.5 12.7627 4.01669 12.7627 8.33681C12.7627 12.6569 15.8157 16.1736 19.5711 16.1736C23.3266 16.1736 26.3796 12.6569 26.3796 8.33681C26.3796 4.01669 23.3266 0.5 19.5711 0.5ZM19.5711 14.374C16.8074 14.374 14.5624 11.6653 14.5624 8.33681C14.5624 5.00835 16.8074 2.29508 19.5711 2.29508C22.3349 2.29508 24.5799 5.00376 24.5799 8.33681C24.5799 11.6653 22.3349 14.374 19.5711 14.374Z" fill="white"/>
<path d="M29.5933 9.20915C28.2941 13.1253 30.0065 17.2296 33.413 18.3636C33.9961 18.5564 34.6067 18.6574 35.2173 18.6574C38.1371 18.6574 40.9101 16.4629 41.9523 13.3227C42.572 11.4541 42.5353 9.48461 41.8421 7.77217C41.1259 6.00923 39.8083 4.72835 38.1326 4.16825C36.4523 3.61274 34.6296 3.84688 33.0044 4.83394C31.4251 5.78428 30.2131 7.34062 29.5933 9.20915ZM37.5265 5.99546C38.6605 6.37192 39.5558 7.25798 40.0562 8.48837C40.575 9.77384 40.6025 11.2705 40.125 12.7075C39.3216 15.1269 37.2832 16.7246 35.2356 16.7246C34.827 16.7246 34.423 16.6603 34.0236 16.5272C31.6271 15.7283 30.461 12.7213 31.4251 9.81516C31.9026 8.38277 32.8162 7.1983 34.0053 6.47751C35.1392 5.79346 36.3926 5.619 37.5265 5.99546Z" fill="white"/>
<path d="M49.1371 18.3406L49.0912 18.3085C48.1317 17.6152 47.0069 17.2847 45.8545 17.2847C43.7794 17.2847 41.6079 18.3544 40.1571 20.3147C37.8892 23.3861 38.2151 27.495 40.8917 29.4737C41.8236 30.167 42.9576 30.5297 44.1742 30.5297C46.3366 30.5297 48.4668 29.3957 49.8762 27.4996C52.1442 24.4328 51.8136 20.3239 49.1371 18.3406ZM48.3245 26.3519C47.2502 27.8026 45.6663 28.606 44.1926 28.606C43.4167 28.606 42.673 28.3857 42.0486 27.922C40.2306 26.5722 40.0791 23.6753 41.7181 21.4625C42.7648 20.0484 44.3074 19.2037 45.8453 19.2037C46.6442 19.2037 47.3879 19.4424 47.9985 19.8923C49.812 21.2421 49.9589 24.139 48.3245 26.3519Z" fill="white"/>
</svg>
