<svg width="29" height="32" viewBox="0 0 29 32" fill="none" xmlns="http://www.w3.org/2000/svg">
<path d="M27.1606 15.8309C23.7999 15.8309 20.8233 17.5064 19.0215 20.0656V15.3184C19.0215 13.1348 17.4655 11.3078 15.4041 10.8877V7.1793H13.5954V2.65757H19.0215V0.848877H6.36065V7.1793H4.55196V10.8877C2.49053 11.3078 0.93457 13.1348 0.93457 15.3184V31.7172H19.0215V26.6415C24.0845 26.1831 28.065 21.9156 28.065 16.7352V15.8309H27.1606ZM8.16934 2.65757H11.7867V7.1793H8.16934V2.65757ZM13.5954 8.988V10.7967H6.36065V8.988H13.5954ZM2.74326 29.9086V15.3184C2.74326 13.8225 3.96033 12.6054 5.4563 12.6054H14.4998C15.9957 12.6054 17.2128 13.8225 17.2128 15.3184V20.0656C15.411 17.5064 12.4344 15.8309 9.07369 15.8309H8.16934V16.7352C8.16934 21.9156 12.1499 26.1831 17.2128 26.6415V29.9086H2.74326ZM17.1564 24.818C13.4345 24.3785 10.4739 21.4179 10.0344 17.696C13.7563 18.1354 16.717 21.0961 17.1564 24.818ZM19.0779 24.818C19.5173 21.0961 22.478 18.1354 26.1999 17.696C25.7605 21.4179 22.7998 24.3785 19.0779 24.818Z" fill="#98B020"/>
</svg>
