<svg width="50" height="50" viewBox="0 0 50 50" fill="none" xmlns="http://www.w3.org/2000/svg">
<circle cx="25" cy="25" r="24.5" fill="#E5E5E5" stroke="#CCCCCC"/>
<path d="M22.2216 11.36H27.8216V16.52L26.6216 30.96H23.4216L22.2216 16.52V11.36ZM25.0216 40.32C24.2216 40.32 23.5282 40.0267 22.9416 39.44C22.3549 38.8533 22.0616 38.16 22.0616 37.36C22.0616 36.5333 22.3549 35.8267 22.9416 35.24C23.5282 34.6533 24.2216 34.36 25.0216 34.36C25.8482 34.36 26.5549 34.6533 27.1416 35.24C27.7282 35.8267 28.0216 36.5333 28.0216 37.36C28.0216 38.16 27.7282 38.8533 27.1416 39.44C26.5549 40.0267 25.8482 40.32 25.0216 40.32Z" fill="#999999"/>
</svg>
