<svg width="20" height="20" viewBox="0 0 20 20" fill="none" xmlns="http://www.w3.org/2000/svg">
<path d="M8.80755 0C3.9512 0 0 3.9512 0 8.80755C0 13.6642 3.9512 17.6151 8.80755 17.6151C13.6642 17.6151 17.6151 13.6642 17.6151 8.80755C17.6151 3.9512 13.6642 0 8.80755 0ZM8.80755 15.9891C4.84768 15.9891 1.62601 12.7675 1.62601 8.80759C1.62601 4.84772 4.84768 1.62601 8.80755 1.62601C12.7674 1.62601 15.9891 4.84768 15.9891 8.80755C15.9891 12.7674 12.7674 15.9891 8.80755 15.9891Z" fill="#333333"/>
<path d="M19.7617 18.6122L15.1005 13.951C14.7829 13.6334 14.2685 13.6334 13.9509 13.951C13.6332 14.2683 13.6332 14.7832 13.9509 15.1006L18.6121 19.7618C18.7709 19.9206 18.9788 20 19.1869 20C19.3948 20 19.6029 19.9206 19.7617 19.7618C20.0794 19.4445 20.0794 18.9296 19.7617 18.6122Z" fill="#333333"/>
</svg>
