<svg width="23" height="24" viewBox="0 0 23 24" fill="none" xmlns="http://www.w3.org/2000/svg">
<path d="M0.860352 1.39331H3.34049L7.35578 13.8785L5.23043 18.8725H21.0551" stroke="#333333" stroke-width="1.3" stroke-miterlimit="10"/>
<path d="M7.35586 13.8784H18.6933L22.0002 4.70007H4.40381" stroke="#333333" stroke-width="1.3" stroke-miterlimit="10"/>
<path d="M17.275 23.032C17.9307 23.032 18.4622 22.5005 18.4622 21.8448C18.4622 21.1892 17.9307 20.6577 17.275 20.6577C16.6194 20.6577 16.0879 21.1892 16.0879 21.8448C16.0879 22.5005 16.6194 23.032 17.275 23.032Z" fill="#333333"/>
<path d="M9.13 23.0321C9.78563 23.0321 10.3171 22.5006 10.3171 21.845C10.3171 21.1893 9.78563 20.6578 9.13 20.6578C8.47437 20.6578 7.94287 21.1893 7.94287 21.845C7.94287 22.5006 8.47437 23.0321 9.13 23.0321Z" fill="#333333"/>
</svg>
