<svg width="19" height="32" viewBox="0 0 19 32" fill="none" xmlns="http://www.w3.org/2000/svg">
<path d="M14.2788 11.439V9.28608H15.3118C15.8112 9.28608 16.2161 8.88118 16.2161 8.38174V1.60112C16.2161 1.10168 15.8112 0.696777 15.3118 0.696777H3.68789C3.18845 0.696777 2.78354 1.10168 2.78354 1.60112V8.38174C2.78354 8.88118 3.18845 9.28608 3.68789 9.28608H4.72083V11.439C2.51676 11.863 0.846191 13.805 0.846191 16.131V30.6608C0.846191 31.1602 1.2511 31.5651 1.75054 31.5651H17.249C17.7484 31.5651 18.1533 31.1602 18.1533 30.6608V16.131C18.1534 13.805 16.4828 11.8629 14.2788 11.439ZM12.3415 2.50547H14.4074V7.47739H12.3415V2.50547H12.3415ZM12.4701 9.28608V11.352H6.52959V9.28608H12.4701ZM8.46688 2.50547H10.5328V7.47739H8.46688V2.50547ZM4.59224 7.47739V2.50547H6.65819V7.47739H4.59224ZM16.3447 29.7565H2.65494V16.131C2.65494 14.4931 3.98741 13.1607 5.62524 13.1607H13.3745C15.0123 13.1607 16.3448 14.4931 16.3448 16.131V29.7565H16.3447Z" fill="#98B020"/>
<path d="M10.1112 16.4336C9.7654 16.1159 9.23383 16.1159 8.88782 16.4336C8.75724 16.5535 5.68921 19.4113 5.68921 22.9116C5.68921 25.0127 7.39854 26.7219 9.49952 26.7219C11.6005 26.7219 13.3098 25.0126 13.3098 22.9116C13.3098 19.4112 10.2418 16.5535 10.1112 16.4336ZM9.49952 24.9132C8.3958 24.9132 7.4979 24.0153 7.4979 22.9116C7.4979 21.0524 8.72673 19.3232 9.49952 18.4197C10.2723 19.3232 11.5011 21.0524 11.5011 22.9116C11.5011 24.0153 10.6032 24.9132 9.49952 24.9132Z" fill="#98B020"/>
</svg>
