<svg width="14" height="14" viewBox="0 0 14 14" fill="none" xmlns="http://www.w3.org/2000/svg">
<path d="M13.5625 3.06248H0.437525C0.196015 3.06248 3.62396e-05 2.86646 3.62396e-05 2.62499C3.62396e-05 2.38348 0.196052 2.1875 0.437525 2.1875H13.5625C13.804 2.1875 14 2.38352 14 2.62499C14 2.86646 13.804 3.06248 13.5625 3.06248Z" fill="#999999"/>
<path d="M0.437525 6.5625H13.5625C13.804 6.5625 14 6.75852 14 6.99999C14 7.24146 13.804 7.43748 13.5625 7.43748H0.437525C0.196015 7.43748 3.62396e-05 7.24146 3.62396e-05 6.99999C3.62396e-05 6.75852 0.196015 6.5625 0.437525 6.5625Z" fill="#999999"/>
<path d="M0.437521 10.9375H9.18751C9.42902 10.9375 9.625 11.1335 9.625 11.375C9.625 11.6165 9.42899 11.8125 9.18751 11.8125H0.437521C0.196012 11.8125 3.24249e-05 11.6165 3.24249e-05 11.375C-3.8147e-06 11.1335 0.196012 10.9375 0.437521 10.9375Z" fill="#999999"/>
</svg>
