<svg width="14" height="14" viewBox="0 0 14 14" fill="none" xmlns="http://www.w3.org/2000/svg"><g clip-path="url(#clip0_1354_8638)"><path d="M13.5 6.50001H5.429C5.15786 5.43466 4.0744 4.79083 3.00902 5.06197C2.3025 5.2418 1.75081 5.79349 1.57099 6.50001H0.500009C0.223857 6.50001 0 6.72387 0 7.00002C0 7.27617 0.223857 7.5 0.500009 7.5H1.57101C1.84216 8.56535 2.92561 9.20918 3.99099 8.93803C4.69752 8.75821 5.24921 8.20652 5.42903 7.5H13.5C13.7761 7.5 14 7.27614 14 6.99999C14 6.72384 13.7761 6.50001 13.5 6.50001ZM3.50001 8.00001C2.94773 8.00001 2.50002 7.55229 2.50002 7.00002C2.50002 6.44774 2.94773 6.00003 3.50001 6.00003C4.05228 6.00003 4.5 6.44774 4.5 7.00002C4.5 7.55229 4.05228 8.00001 3.50001 8.00001Z" fill="#999999"/><path d="M13.5 1.4997H11.929C11.6579 0.434353 10.5744 -0.209475 9.50903 0.0616675C8.8025 0.241492 8.25081 0.793181 8.07099 1.4997H0.500009C0.223857 1.4997 0 1.72356 0 1.99971C0 2.27586 0.223857 2.49972 0.500009 2.49972H8.07099C8.34213 3.56507 9.42559 4.2089 10.491 3.93776C11.1975 3.75793 11.7492 3.20624 11.929 2.49972H13.5C13.7761 2.49972 14 2.27586 14 1.99971C14 1.72356 13.7761 1.4997 13.5 1.4997ZM10 2.9997C9.44774 2.9997 9.00002 2.55199 9.00002 1.99971C9.00002 1.44744 9.44774 0.999723 10 0.999723C10.5523 0.999723 11 1.44744 11 1.99971C11 2.55199 10.5523 2.9997 10 2.9997Z" fill="#999999"/><path d="M13.5 11.5H10.929C10.6578 10.4347 9.57439 9.79083 8.50901 10.062C7.80248 10.2418 7.2508 10.7935 7.07097 11.5H0.500009C0.223857 11.5 0 11.7239 0 12C0 12.2761 0.223857 12.5 0.500009 12.5H7.071C7.34214 13.5654 8.4256 14.2092 9.49098 13.9381C10.1975 13.7582 10.7492 13.2065 10.929 12.5H13.5C13.7761 12.5 14 12.2762 14 12C14 11.7238 13.7761 11.5 13.5 11.5ZM8.99999 13C8.44772 13 8 12.5523 8 12C8 11.4477 8.44772 11 8.99999 11C9.55227 11 9.99998 11.4477 9.99998 12C9.99998 12.5523 9.5523 13 8.99999 13Z" fill="#999999"/></g><defs><clipPath id="clip0_1354_8638"><rect width="14" height="14" fill="white"/></clipPath></defs></svg>