<svg width="12" height="13" viewBox="0 0 12 13" fill="none" xmlns="http://www.w3.org/2000/svg">
<path d="M1.6592 9.21484C2.57634 9.21484 3.3184 9.95898 3.3184 10.874C3.3184 11.7912 2.57426 12.5332 1.6592 12.5332C0.742053 12.5332 0 11.7891 0 10.874C0 9.9569 0.744138 9.21484 1.6592 9.21484Z" fill="#333333"/>
<path d="M0.00195312 6.90342C3.09106 6.90342 5.61321 9.40889 5.61321 12.5459H7.92066C7.92066 8.16032 4.36881 4.5918 0.00195312 4.5918V6.90342Z" fill="#333333"/>
<path d="M0.00488281 2.80745C5.34516 2.80745 9.69326 7.17848 9.69326 12.5479H12.0007C12.0007 5.90281 6.61874 0.5 0.00488281 0.5V2.80745Z" fill="#333333"/>
</svg>
