<svg width="18" height="21" viewBox="0 0 18 21" fill="none" xmlns="http://www.w3.org/2000/svg">
<g clip-path="url(#clip0_550_2899)">
<path d="M8.64205 20.375C13.4101 20.375 17.2841 16.4969 17.2841 11.737C17.2841 9.43059 16.386 7.26294 14.7531 5.63006C14.5368 5.4137 14.1898 5.4137 13.9734 5.63006C13.7571 5.84641 13.7571 6.1934 13.9734 6.40976C15.3981 7.83037 16.1819 9.72451 16.1819 11.737C16.1819 15.8927 12.8018 19.2728 8.64205 19.2728C4.48227 19.2728 1.1022 15.8887 1.1022 11.733C1.1022 7.57727 4.48227 4.1972 8.64205 4.1972L8.68287 4.1972L6.61319 6.48732C6.40908 6.71592 6.42949 7.06291 6.65401 7.26702C6.88262 7.47113 7.2296 7.45072 7.43371 7.2262L10.5403 3.77673C10.6342 3.67468 10.6832 3.54405 10.6832 3.40933C10.6832 3.38484 10.6832 3.36443 10.6791 3.33994C10.6587 3.18073 10.5729 3.03785 10.4382 2.94805L6.703 0.46606C6.4499 0.298691 6.10699 0.368089 5.93962 0.621185C5.77225 0.874283 5.84165 1.21719 6.09475 1.38456L8.67063 3.095L8.64205 3.095C3.8781 3.095 -5.85994e-07 6.96902 -3.77755e-07 11.733C-1.69517e-07 16.4969 3.87402 20.375 8.64205 20.375Z" fill="#666666"/>
</g>
<defs>
<clipPath id="clip0_550_2899">
<rect width="20" height="17.2841" fill="white" transform="translate(0 20.375) rotate(-90)"/>
</clipPath>
</defs>
</svg>
