<svg width="19" height="32" viewBox="0 0 19 32" fill="none" xmlns="http://www.w3.org/2000/svg">
<path d="M14.2788 11.0149V8.86201H15.3118C15.8112 8.86201 16.2161 8.4571 16.2161 7.95766V1.17705C16.2161 0.677611 15.8112 0.272705 15.3118 0.272705H3.68789C3.18845 0.272705 2.78354 0.677611 2.78354 1.17705V7.95766C2.78354 8.4571 3.18845 8.86201 3.68789 8.86201H4.72083V11.0149C2.51676 11.4389 0.846191 13.381 0.846191 15.7069V30.2367C0.846191 30.7362 1.2511 31.1411 1.75054 31.1411H17.249C17.7484 31.1411 18.1533 30.7362 18.1533 30.2367V15.7069C18.1534 13.381 16.4828 11.4389 14.2788 11.0149ZM12.3415 2.0814H14.4074V7.05332H12.3415V2.0814H12.3415ZM12.4701 8.86201V10.928H6.52959V8.86201H12.4701ZM8.46688 2.0814H10.5328V7.05332H8.46688V2.0814ZM4.59224 7.05332V2.0814H6.65819V7.05332H4.59224ZM16.3447 29.3324H2.65494V15.7069C2.65494 14.0691 3.98741 12.7366 5.62524 12.7366H13.3745C15.0123 12.7366 16.3448 14.0691 16.3448 15.7069V29.3324H16.3447Z" fill="#98B020"/>
<path d="M10.1112 15.0095C9.7654 14.6918 9.23383 14.6918 8.88782 15.0095C8.75724 15.1295 5.68921 17.9872 5.68921 21.4876C5.68921 23.5886 7.39854 25.2979 9.49952 25.2979C11.6005 25.2979 13.3098 23.5885 13.3098 21.4876C13.3098 17.9871 10.2418 15.1295 10.1112 15.0095ZM9.49952 23.4892C8.3958 23.4892 7.4979 22.5912 7.4979 21.4876C7.4979 19.6283 8.72673 17.8991 9.49952 16.9956C10.2723 17.8991 11.5011 19.6283 11.5011 21.4876C11.5011 22.5912 10.6032 23.4892 9.49952 23.4892Z" fill="#98B020"/>
<rect x="8.49902" y="20.5388" width="2.00098" height="6.875" rx="1" fill="#98B020"/>
</svg>
