<svg width="14" height="14" viewBox="0 0 14 14" fill="none" xmlns="http://www.w3.org/2000/svg"><g clip-path="url(#clip0_6907_102)"><path d="M6.67017 3.4292C4.85137 3.4292 3.37891 4.90327 3.37891 6.72046C3.37891 8.53926 4.85297 10.0117 6.67017 10.0117C8.48897 10.0117 9.96143 8.53766 9.96143 6.72046C9.96143 4.90166 8.48737 3.4292 6.67017 3.4292ZM6.67017 8.85674C5.48953 8.85674 4.5339 7.90057 4.5339 6.72046C4.5339 5.54035 5.49006 4.58419 6.67017 4.58419C7.85028 4.58419 8.80645 5.54035 8.80645 6.72046C8.80698 7.90057 7.85081 8.85674 6.67017 8.85674Z" fill="#333333"/><path d="M9.31222 0.349862C8.13211 0.294812 5.2091 0.297484 4.02792 0.349862C2.98998 0.398499 2.07443 0.649165 1.33633 1.38727C0.102773 2.62082 0.260441 4.28302 0.260441 6.72074C0.260441 9.21565 0.121479 10.8394 1.33633 12.0542C2.57469 13.292 4.26095 13.1301 6.6698 13.1301C9.14119 13.1301 9.9942 13.1317 10.8681 12.7934C12.0562 12.3321 12.953 11.2701 13.0407 9.36262C13.0963 8.18198 13.0931 5.2595 13.0407 4.07832C12.9349 1.8266 11.7264 0.461032 9.31222 0.349862ZM11.1802 11.2381C10.3715 12.0467 9.24969 11.9746 6.6543 11.9746C3.98195 11.9746 2.91034 12.0141 2.12841 11.2301C1.22783 10.3338 1.39084 8.89443 1.39084 6.71219C1.39084 3.75924 1.0878 1.63259 4.05143 1.4808C4.73235 1.45675 4.93278 1.44873 6.64682 1.44873L6.67087 1.46477C9.51906 1.46477 11.7537 1.16653 11.8878 4.12963C11.9183 4.80574 11.9252 5.00883 11.9252 6.72021C11.9247 9.36156 11.9749 10.4396 11.1802 11.2381Z" fill="#333333"/><path d="M10.0919 4.06848C10.5166 4.06848 10.861 3.72414 10.861 3.29937C10.861 2.87461 10.5166 2.53027 10.0919 2.53027C9.66709 2.53027 9.32275 2.87461 9.32275 3.29937C9.32275 3.72414 9.66709 4.06848 10.0919 4.06848Z" fill="#333333"/></g><defs><clipPath id="clip0_6907_102"><rect width="12.8273" height="12.8273" fill="white" transform="translate(0.254395 0.309082)"/></clipPath></defs></svg>