<svg width="35" height="40" viewBox="0 0 35 40" fill="none" xmlns="http://www.w3.org/2000/svg"><path d="M15.1924 0.119141C10.6738 0.119141 7 3.79374 7 8.31306C7 12.8323 10.6739 16.507 15.1924 16.507C17.2693 16.507 19.1633 15.7284 20.6085 14.4504L27.1208 20.9639C27.2167 21.0627 27.3483 21.1186 27.4858 21.1191C27.6233 21.1197 27.7553 21.0648 27.8521 20.9671C27.9489 20.8693 28.0021 20.7367 27.9999 20.5992C27.998 20.4615 27.9407 20.3306 27.8408 20.2359L21.3367 13.7301C22.6107 12.2855 23.3849 10.3869 23.3849 8.31311C23.3849 3.79365 19.7109 0.119191 15.1925 0.119191L15.1924 0.119141ZM15.1924 1.14347C19.1574 1.14347 22.3608 4.34724 22.3608 8.31315C22.3608 12.2789 19.1576 15.4828 15.1924 15.4828C11.2272 15.4828 8.02405 12.2791 8.02405 8.31315C8.02405 4.34724 11.2272 1.14347 15.1924 1.14347Z" fill="#717171"/><path d="M1.05682 36.8806V28.1533H4.10795C4.71591 28.1533 5.21733 28.2585 5.61222 28.4687C6.0071 28.6761 6.30114 28.9559 6.49432 29.3082C6.6875 29.6576 6.78409 30.0454 6.78409 30.4715C6.78409 30.8465 6.71733 31.1562 6.58381 31.4005C6.45313 31.6448 6.27983 31.838 6.06392 31.98C5.85085 32.1221 5.61932 32.2272 5.36932 32.2954V32.3806C5.63636 32.3977 5.90483 32.4914 6.17472 32.6619C6.4446 32.8323 6.67045 33.0766 6.85227 33.3948C7.03409 33.713 7.125 34.1022 7.125 34.5624C7.125 34.9999 7.02557 35.3934 6.8267 35.7428C6.62784 36.0923 6.31392 36.3693 5.88494 36.5738C5.45597 36.7783 4.89773 36.8806 4.21023 36.8806H1.05682ZM2.11364 35.9431H4.21023C4.90057 35.9431 5.39063 35.8096 5.6804 35.5425C5.97301 35.2727 6.11932 34.946 6.11932 34.5624C6.11932 34.267 6.04403 33.9943 5.89347 33.7443C5.7429 33.4914 5.52841 33.2897 5.25 33.1391C4.97159 32.9857 4.64205 32.909 4.26136 32.909H2.11364V35.9431ZM2.11364 31.9886H4.07386C4.39205 31.9886 4.67898 31.9261 4.93466 31.8011C5.19318 31.6761 5.39773 31.4999 5.5483 31.2727C5.7017 31.0454 5.77841 30.7783 5.77841 30.4715C5.77841 30.088 5.64489 29.7627 5.37784 29.4957C5.1108 29.2258 4.6875 29.0908 4.10795 29.0908H2.11364V31.9886ZM12.8501 34.2045V30.3352H13.8558V36.8806H12.8501V35.7727H12.782C12.6286 36.105 12.3899 36.3877 12.0661 36.6207C11.7422 36.8508 11.3331 36.9658 10.8388 36.9658C10.4297 36.9658 10.0661 36.8764 9.74787 36.6974C9.42969 36.5156 9.17969 36.2428 8.99787 35.8792C8.81605 35.5127 8.72514 35.0511 8.72514 34.4943V30.3352H9.73082V34.4261C9.73082 34.9033 9.86435 35.284 10.1314 35.5681C10.4013 35.8522 10.745 35.9943 11.1626 35.9943C11.4126 35.9943 11.6669 35.9303 11.9254 35.8025C12.1868 35.6746 12.4055 35.4786 12.5817 35.2144C12.7607 34.9502 12.8501 34.6136 12.8501 34.2045ZM20.3342 31.8011L19.4308 32.0568C19.3739 31.9062 19.2901 31.7599 19.1793 31.6178C19.0714 31.4729 18.9237 31.3536 18.7362 31.2599C18.5487 31.1661 18.3086 31.1193 18.016 31.1193C17.6154 31.1193 17.2816 31.2116 17.0146 31.3962C16.7504 31.5781 16.6183 31.8096 16.6183 32.0908C16.6183 32.3408 16.7092 32.5383 16.891 32.6832C17.0728 32.8281 17.3569 32.9488 17.7433 33.0454L18.7148 33.284C19.3001 33.4261 19.7362 33.6434 20.0231 33.936C20.31 34.2258 20.4535 34.5994 20.4535 35.0568C20.4535 35.4318 20.3455 35.767 20.1296 36.0624C19.9165 36.3579 19.6183 36.5908 19.2347 36.7613C18.8512 36.9318 18.4052 37.017 17.8967 37.017C17.229 37.017 16.6765 36.8721 16.239 36.5823C15.8015 36.2925 15.5245 35.8693 15.408 35.3124L16.3626 35.0738C16.4535 35.4261 16.6254 35.6903 16.8782 35.8664C17.1339 36.0425 17.4677 36.1306 17.8796 36.1306C18.3484 36.1306 18.7205 36.0312 18.9961 35.8323C19.2745 35.6306 19.4137 35.3891 19.4137 35.1079C19.4137 34.8806 19.3342 34.6903 19.1751 34.5369C19.016 34.3806 18.7717 34.2641 18.4421 34.1874L17.3512 33.9318C16.7518 33.7897 16.3114 33.5695 16.0302 33.2712C15.7518 32.9701 15.6126 32.5937 15.6126 32.142C15.6126 31.7727 15.7163 31.446 15.9237 31.1619C16.1339 30.8778 16.4194 30.6548 16.7802 30.4928C17.1438 30.3309 17.5558 30.2499 18.016 30.2499C18.6637 30.2499 19.1722 30.392 19.5415 30.6761C19.9137 30.9602 20.1779 31.3352 20.3342 31.8011ZM24.6264 37.017C24.0128 37.017 23.4844 36.8721 23.0412 36.5823C22.598 36.2925 22.2571 35.8934 22.0185 35.3849C21.7798 34.8764 21.6605 34.2954 21.6605 33.642C21.6605 32.9772 21.7827 32.3906 22.027 31.882C22.2741 31.3707 22.6179 30.9715 23.0582 30.6846C23.5014 30.3948 24.0185 30.2499 24.6094 30.2499C25.0696 30.2499 25.4844 30.3352 25.8537 30.5056C26.223 30.6761 26.5256 30.9147 26.7614 31.2215C26.9972 31.5283 27.1435 31.8863 27.2003 32.2954H26.1946C26.1179 31.9971 25.9474 31.7329 25.6832 31.5028C25.4219 31.2698 25.0696 31.1533 24.6264 31.1533C24.2344 31.1533 23.8906 31.2556 23.5952 31.4602C23.3026 31.6619 23.0739 31.9474 22.9091 32.3167C22.7472 32.6832 22.6662 33.1136 22.6662 33.6079C22.6662 34.1136 22.7457 34.5539 22.9048 34.9289C23.0668 35.3039 23.294 35.5951 23.5866 35.8025C23.8821 36.0099 24.2287 36.1136 24.6264 36.1136C24.8878 36.1136 25.125 36.0681 25.3381 35.9772C25.5511 35.8863 25.7315 35.7556 25.8793 35.5852C26.027 35.4147 26.1321 35.2102 26.1946 34.9715H27.2003C27.1435 35.3579 27.0028 35.7059 26.7784 36.0156C26.5568 36.3224 26.2628 36.5667 25.8963 36.7485C25.5327 36.9275 25.1094 37.017 24.6264 37.017ZM30.5966 37.034C30.1818 37.034 29.8054 36.9559 29.4673 36.7996C29.1293 36.6406 28.8608 36.4119 28.6619 36.1136C28.4631 35.8124 28.3636 35.4488 28.3636 35.0227C28.3636 34.6477 28.4375 34.3437 28.5852 34.1107C28.733 33.8749 28.9304 33.6903 29.1776 33.5568C29.4247 33.4232 29.6974 33.3238 29.9957 33.2585C30.2969 33.1903 30.5994 33.1363 30.9034 33.0965C31.3011 33.0454 31.6236 33.007 31.8707 32.9815C32.1207 32.9531 32.3026 32.9062 32.4162 32.8408C32.5327 32.7755 32.5909 32.6619 32.5909 32.4999V32.4658C32.5909 32.0454 32.4759 31.7187 32.2457 31.4857C32.0185 31.2528 31.6733 31.1363 31.2102 31.1363C30.7301 31.1363 30.3537 31.2414 30.081 31.4516C29.8082 31.6619 29.6165 31.8863 29.5057 32.1249L28.5511 31.784C28.7216 31.3863 28.9489 31.0766 29.233 30.855C29.5199 30.6306 29.8324 30.4744 30.1705 30.3863C30.5114 30.2954 30.8466 30.2499 31.1761 30.2499C31.3864 30.2499 31.6278 30.2755 31.9006 30.3266C32.1761 30.3749 32.4418 30.4758 32.6974 30.6292C32.956 30.7826 33.1705 31.0141 33.3409 31.3238C33.5114 31.6335 33.5966 32.0482 33.5966 32.5681V36.8806H32.5909V35.9943H32.5398C32.4716 36.1363 32.358 36.2883 32.1989 36.4502C32.0398 36.6121 31.8281 36.7499 31.5639 36.8636C31.2997 36.9772 30.9773 37.034 30.5966 37.034ZM30.75 36.1306C31.1477 36.1306 31.483 36.0525 31.7557 35.8962C32.0313 35.74 32.2386 35.5383 32.3778 35.2911C32.5199 35.044 32.5909 34.784 32.5909 34.5113V33.5908C32.5483 33.642 32.4545 33.6889 32.3097 33.7315C32.1676 33.7712 32.0028 33.8068 31.8153 33.838C31.6307 33.8664 31.4503 33.892 31.2741 33.9147C31.1009 33.9346 30.9602 33.9516 30.8523 33.9658C30.5909 33.9999 30.3466 34.0553 30.1193 34.132C29.8949 34.2059 29.7131 34.3181 29.5739 34.4687C29.4375 34.6164 29.3693 34.8181 29.3693 35.0738C29.3693 35.4232 29.4986 35.6874 29.7571 35.8664C30.0185 36.0425 30.3494 36.1306 30.75 36.1306Z" fill="#717171"/></svg>