<svg width="40" height="40" viewBox="0 0 40 40" fill="none" xmlns="http://www.w3.org/2000/svg">
<path fill-rule="evenodd" clip-rule="evenodd" d="M13.3333 38.3334C15.1743 38.3334 16.6667 36.841 16.6667 35.0001C16.6667 33.1591 15.1743 31.6667 13.3333 31.6667C11.4924 31.6667 10 33.1591 10 35.0001C10 36.841 11.4924 38.3334 13.3333 38.3334Z" stroke="#666666" stroke-width="2" stroke-linecap="round" stroke-linejoin="round"/>
<path fill-rule="evenodd" clip-rule="evenodd" d="M33.3333 38.3334C35.1743 38.3334 36.6667 36.841 36.6667 35.0001C36.6667 33.1591 35.1743 31.6667 33.3333 31.6667C31.4924 31.6667 30 33.1591 30 35.0001C30 36.841 31.4924 38.3334 33.3333 38.3334Z" stroke="#666666" stroke-width="2" stroke-linecap="round" stroke-linejoin="round"/>
<path d="M9.44984 10.0001H38.3332L35.5332 23.9834C35.2186 25.5671 33.8142 26.6977 32.1998 26.6667H14.5832C12.899 26.681 11.4687 25.4367 11.2498 23.7667L8.7165 4.56675C8.49921 2.90941 7.08803 1.66928 5.4165 1.66675H1.6665" stroke="#666666" stroke-width="2" stroke-linecap="round" stroke-linejoin="round"/>
</svg>
