<svg width="50" height="50" viewBox="0 0 50 50" fill="none" xmlns="http://www.w3.org/2000/svg">
<circle cx="25" cy="25" r="24.5" fill="#E5E5E5" stroke="#CCCCCC"/>
<path d="M27.4238 31.32H22.9038V28.88C22.9038 27.8133 23.0238 27.0267 23.2638 26.52C23.5304 25.9867 24.0904 25.2933 24.9438 24.44L27.8638 21.52C28.4771 20.8533 28.7838 20.0267 28.7838 19.04C28.7838 18.0533 28.4638 17.24 27.8238 16.6C27.1838 15.9333 26.3571 15.6 25.3438 15.6C24.3304 15.6 23.4771 15.92 22.7838 16.56C22.1171 17.1733 21.7304 18 21.6238 19.04H16.7838C17.0504 16.6667 17.9704 14.8133 19.5438 13.48C21.1438 12.12 23.1304 11.44 25.5038 11.44C27.8771 11.44 29.8104 12.0933 31.3038 13.4C32.7971 14.68 33.5438 16.48 33.5438 18.8C33.5438 20.4 33.1038 21.7333 32.2238 22.8C31.7171 23.44 31.3304 23.8933 31.0638 24.16C30.7971 24.4267 30.4371 24.7733 29.9838 25.2C29.5571 25.6 29.1838 25.96 28.8638 26.28C28.5704 26.5733 28.3304 26.8267 28.1438 27.04C27.6638 27.6267 27.4238 28.4533 27.4238 29.52V31.32ZM25.2238 40.2C24.3971 40.2 23.6771 39.92 23.0638 39.36C22.4504 38.7733 22.1438 38.08 22.1438 37.28C22.1438 36.4533 22.4371 35.7467 23.0238 35.16C23.6371 34.5733 24.3571 34.28 25.1838 34.28C26.0371 34.28 26.7704 34.5733 27.3838 35.16C27.9971 35.72 28.3038 36.4133 28.3038 37.24C28.3038 38.04 27.9971 38.7333 27.3838 39.32C26.7971 39.9067 26.0771 40.2 25.2238 40.2Z" fill="#999999"/>
</svg>
