<svg width="14" height="17" viewBox="0 0 14 17" fill="none" xmlns="http://www.w3.org/2000/svg"><g clip-path="url(#clip0_1908_15411)"><path d="M5.54294 1.02618H8.4677V1.50426H9.52394V0.959259C9.52407 0.430344 9.08134 0 8.53713 0H5.47351C4.92931 0 4.48657 0.430344 4.48657 0.959259V1.50426H5.54294V1.02618Z" fill="#666666"/><path d="M11.9631 5.56982H2.04727C1.77557 5.56982 1.56168 5.79498 1.58357 6.05814L2.41257 16.016C2.45876 16.5719 2.93608 17 3.50952 17H10.5007C11.0742 17 11.5515 16.5719 11.5977 16.0158L12.4267 6.05814C12.4487 5.79498 12.2348 5.56982 11.9631 5.56982ZM4.44826 15.9379C4.43718 15.9385 4.4261 15.9389 4.41515 15.9389C4.13824 15.9389 3.90579 15.7295 3.88857 15.4574L3.36906 7.28251C3.35117 6.99963 3.57267 6.75619 3.86373 6.73881C4.15386 6.72169 4.40554 6.93634 4.42343 7.21935L4.9428 15.3942C4.96082 15.6771 4.73932 15.9204 4.44826 15.9379ZM7.53925 15.4258C7.53925 15.7091 7.3028 15.9388 7.01107 15.9388C6.71934 15.9388 6.48289 15.7091 6.48289 15.4258V7.25086C6.48289 6.96747 6.71934 6.73777 7.01107 6.73777C7.30266 6.73777 7.53925 6.96747 7.53925 7.25086V15.4258ZM10.6413 7.28108L10.1453 15.4559C10.1289 15.7286 9.89605 15.9388 9.61861 15.9388C9.60819 15.9388 9.59764 15.9385 9.5871 15.938C9.2959 15.9213 9.07373 15.6785 9.09096 15.3956L9.58683 7.22064C9.60392 6.93777 9.85306 6.72195 10.1451 6.73868C10.4362 6.75528 10.6584 6.99821 10.6413 7.28108Z" fill="#666666"/><path d="M13.7897 3.98653L13.4429 2.97643C13.3514 2.71015 13.0948 2.53052 12.8057 2.53052H1.20479C0.915864 2.53052 0.659116 2.71015 0.567792 2.97643L0.220922 3.98653C0.154031 4.18134 0.241082 4.38003 0.403569 4.47913C0.469792 4.51946 0.548165 4.54372 0.634282 4.54372H13.3764C13.4625 4.54372 13.541 4.51946 13.6071 4.479C13.7696 4.37991 13.8566 4.18121 13.7897 3.98653Z" fill="#666666"/></g><defs><clipPath id="clip0_1908_15411"><rect width="14" height="17" fill="white"/></clipPath></defs></svg>