<svg width="14" height="14" viewBox="0 0 14 14" fill="none" xmlns="http://www.w3.org/2000/svg">
<path d="M6.00015 0C2.69176 0 0 2.69176 0 6.00015C0 9.30873 2.69176 12.0003 6.00015 12.0003C9.30873 12.0003 12.0003 9.30873 12.0003 6.00015C12.0003 2.69176 9.30873 0 6.00015 0ZM6.00015 10.8926C3.30248 10.8926 1.10772 8.69784 1.10772 6.00017C1.10772 3.30251 3.30248 1.10772 6.00015 1.10772C8.69781 1.10772 10.8926 3.30248 10.8926 6.00015C10.8926 8.69781 8.69781 10.8926 6.00015 10.8926Z" fill="#98B020"/>
<path d="M13.4627 12.6795L10.2873 9.50404C10.0709 9.28767 9.72046 9.28767 9.50408 9.50404C9.2877 9.72023 9.2877 10.071 9.50408 10.2872L12.6796 13.4627C12.7877 13.5709 12.9294 13.625 13.0712 13.625C13.2128 13.625 13.3545 13.5709 13.4627 13.4627C13.6791 13.2465 13.6791 12.8957 13.4627 12.6795Z" fill="#98B020"/>
</svg>
