<svg width="40" height="40" viewBox="0 0 40 40" fill="none" xmlns="http://www.w3.org/2000/svg"><rect x="40" y="40" width="40" height="40" rx="20" transform="rotate(-180 40 40)" fill="#191C1F" fill-opacity="0.7"/><path d="M20.626 10.363C20.8614 10.6051 20.9847 10.9131 20.9958 11.2871C21.0061 11.6612 20.8935 11.9692 20.6581 12.2112L14.366 18.6799L28.7159 18.6799C29.0797 18.6799 29.3849 18.8066 29.6315 19.0601C29.8772 19.3127 30 19.626 30 20C30 20.374 29.8772 20.6878 29.6315 20.9413C29.3849 21.1938 29.0797 21.3201 28.7159 21.3201L14.366 21.3201L20.6581 27.7888C20.8935 28.0308 21.0061 28.3388 20.9958 28.7129C20.9847 29.0869 20.8614 29.3949 20.626 29.637C20.3906 29.879 20.091 30 19.7271 30C19.3633 30 19.0637 29.879 18.8283 29.637L10.3531 20.9241C10.2247 20.8141 10.1335 20.6768 10.0796 20.5122C10.0265 20.3468 10 20.176 10 20C10 19.824 10.0265 19.659 10.0796 19.505C10.1335 19.3509 10.2247 19.2079 10.3531 19.0759L18.8283 10.363C19.0637 10.121 19.3633 10 19.7271 10C20.091 10 20.3906 10.121 20.626 10.363Z" fill="#F8F8F8"/><path d="M20.626 10.363C20.8614 10.6051 20.9847 10.9131 20.9958 11.2871C21.0061 11.6612 20.8935 11.9692 20.6581 12.2112L14.366 18.6799L28.7159 18.6799C29.0797 18.6799 29.3849 18.8066 29.6315 19.0601C29.8772 19.3127 30 19.626 30 20C30 20.374 29.8772 20.6878 29.6315 20.9413C29.3849 21.1938 29.0797 21.3201 28.7159 21.3201L14.366 21.3201L20.6581 27.7888C20.8935 28.0308 21.0061 28.3388 20.9958 28.7129C20.9847 29.0869 20.8614 29.3949 20.626 29.637C20.3906 29.879 20.091 30 19.7271 30C19.3633 30 19.0637 29.879 18.8283 29.637L10.3531 20.9241C10.2247 20.8141 10.1335 20.6768 10.0796 20.5122C10.0265 20.3468 10 20.176 10 20C10 19.824 10.0265 19.659 10.0796 19.505C10.1335 19.3509 10.2247 19.2079 10.3531 19.0759L18.8283 10.363C19.0637 10.121 19.3633 10 19.7271 10C20.091 10 20.3906 10.121 20.626 10.363Z" fill="white"/></svg>