<svg width="40" height="40" viewBox="0 0 40 40" fill="none" xmlns="http://www.w3.org/2000/svg"><rect width="40" height="40" rx="20" fill="#191C1F" fill-opacity="0.7"/><path d="M19.374 29.637C19.1386 29.3949 19.0153 29.0869 19.0042 28.7129C18.9939 28.3388 19.1065 28.0308 19.3419 27.7888L25.634 21.3201H11.2841C10.9203 21.3201 10.6151 21.1934 10.3685 20.9399C10.1228 20.6873 10 20.374 10 20C10 19.626 10.1228 19.3122 10.3685 19.0587C10.6151 18.8062 10.9203 18.6799 11.2841 18.6799H25.634L19.3419 12.2112C19.1065 11.9692 18.9939 11.6612 19.0042 11.2871C19.0153 10.9131 19.1386 10.6051 19.374 10.363C19.6094 10.121 19.909 10 20.2729 10C20.6367 10 20.9363 10.121 21.1717 10.363L29.6469 19.0759C29.7753 19.1859 29.8665 19.3232 29.9204 19.4878C29.9735 19.6532 30 19.824 30 20C30 20.176 29.9735 20.341 29.9204 20.495C29.8665 20.6491 29.7753 20.7921 29.6469 20.9241L21.1717 29.637C20.9363 29.879 20.6367 30 20.2729 30C19.909 30 19.6094 29.879 19.374 29.637Z" fill="#F8F8F8"/><path d="M19.374 29.637C19.1386 29.3949 19.0153 29.0869 19.0042 28.7129C18.9939 28.3388 19.1065 28.0308 19.3419 27.7888L25.634 21.3201H11.2841C10.9203 21.3201 10.6151 21.1934 10.3685 20.9399C10.1228 20.6873 10 20.374 10 20C10 19.626 10.1228 19.3122 10.3685 19.0587C10.6151 18.8062 10.9203 18.6799 11.2841 18.6799H25.634L19.3419 12.2112C19.1065 11.9692 18.9939 11.6612 19.0042 11.2871C19.0153 10.9131 19.1386 10.6051 19.374 10.363C19.6094 10.121 19.909 10 20.2729 10C20.6367 10 20.9363 10.121 21.1717 10.363L29.6469 19.0759C29.7753 19.1859 29.8665 19.3232 29.9204 19.4878C29.9735 19.6532 30 19.824 30 20C30 20.176 29.9735 20.341 29.9204 20.495C29.8665 20.6491 29.7753 20.7921 29.6469 20.9241L21.1717 29.637C20.9363 29.879 20.6367 30 20.2729 30C19.909 30 19.6094 29.879 19.374 29.637Z" fill="white"/></svg>